<svg width="10" height="10" viewBox="0 0 10 10" fill="none" xmlns="http://www.w3.org/2000/svg">
<path fill-rule="evenodd" clip-rule="evenodd" d="M9.87754 1.02025C10.1425 1.50481 9.96454 2.11244 9.47998 2.37744C8.10863 3.12739 6.82076 4.6974 5.83744 6.20311C5.35808 6.93713 4.97349 7.62054 4.70899 8.12024C4.577 8.36959 4.47558 8.57193 4.40788 8.71038C4.37404 8.77957 4.34867 8.83271 4.33216 8.86768L4.3141 8.90621L4.31015 8.91473L4.30965 8.91583C4.15515 9.25353 3.82609 9.47808 3.45528 9.49855C3.08436 9.51902 2.73266 9.33219 2.54197 9.01338C2.23126 8.49391 1.73753 8.0197 1.27997 7.65795C1.05765 7.48217 0.85753 7.3436 0.714718 7.25005C0.643589 7.20346 0.587438 7.16853 0.550786 7.14624C0.53248 7.1351 0.519105 7.12716 0.511229 7.12252L0.504429 7.11854C0.0249384 6.84484 -0.142031 6.23429 0.131511 5.75466C0.405118 5.27491 1.01583 5.1078 1.49558 5.38141L1.00017 6.25007C1.49558 5.38141 1.49539 5.3813 1.49558 5.38141L1.49729 5.38238L1.49959 5.3837L1.50594 5.38736L1.52544 5.39876C1.5414 5.40814 1.56318 5.42111 1.59018 5.43754C1.64416 5.47037 1.71925 5.51718 1.81063 5.57703C1.99281 5.69638 2.2427 5.86952 2.52037 6.08906C2.73257 6.25683 2.96985 6.45857 3.20939 6.69099C3.46624 6.22961 3.78717 5.68487 4.1629 5.10953C5.17959 3.55273 6.69171 1.62274 8.52036 0.622695C9.00492 0.357702 9.61255 0.535695 9.87754 1.02025Z" fill="#8F8881"/>
</svg>
